#!OML:ASF F:\VICON\USERDATA\INSTALL\rory3\rory3.ASF
:FULLY-SPECIFIED
:DEGREES
93
root -0.392707108596407 18.47617706683887 25.21195409363374 4.20790866379674 -2.9625897622125947 -0.5779687185585127
lfemur 9.208193354789614 -3.925529900197346 -27.026608418202965
ltibia 32.07778438639741
lfoot 39.74758031119511 -25.870772565863692
ltoes -17.902891856558874
rfemur -37.845919959937376 -0.06931432639201285 23.342518784391576
rtibia -25.752425789833218
rfoot 5.030521814681061 -2.647084265935158
rtoes -36.651572925727194
lowerback 1.0 -1.5473833894904148 -1.2116870216950948
upperback -0.9603215647094224 -1.1546833647135402 1.502657656606988
thorax -6.950121841829253 -0.652387863415459 3.297210950519923
lowerneck -22.368582937422524 -1.8972828162426203 -2.449494645231823
upperneck 9.097547466422565 -2.4899375979857132 1.4338551003093138
head 6.673714456410318 -1.0246563531233335 0.6131711615991138
lclavicle -4.794342013981996e-15 -3.723851922370782e-15
lhumerus -41.93229324758755 -15.618191185985193 96.60290398386391
lradius 122.00097206646755
lwrist 44.28283215063106
lhand -33.27514743400387 2.725906065500882
lfingers nan
lthumb -7.947338852154848 32.44058695614351
rclavicle 2.8439496663400996e-17 -2.0137591391468146e-15
rhumerus -61.657956922676114 2.2834807574647638 -89.2025857834902
rradius 124.61919403184847
rwrist -4.768934546889346
rhand -20.272012559469708 1.0
rfingers nan
rthumb 6.154338511839184 12.125393966326243
94
root -0.37605494418378166 18.411762173278756 25.866242823552575 3.8491792723039464 -3.667899997183624 -1.0340814345427505
lfemur 8.02236821417332 -3.180750830047968 -26.301448053942835
ltibia 35.474432506057894
lfoot 39.03648750988309 -26.185868034749035
ltoes -17.784489739217204
rfemur -37.69904944310498 -0.4475671584269003 24.904294547943827
rtibia -23.744027787214456
rfoot 5.114332908215667 -1.2693899479104207
rtoes -37.079586484466944
lowerback 1.0 -1.3788972969810516 -1.0212044299596228
upperback -0.7634454699945874 -0.9216424778104011 1.6493437676347849
thorax -7.132411781942793 -0.5282868518769561 3.224315335444328
lowerneck -22.02639188588212 -1.8730365525698596 -2.4791321366198154
upperneck 9.080275567651451 -2.57884367028647 1.461844657476704
head 6.6013593807119175 -1.0440011583479216 0.6158321616512437
lclavicle 2.1458231985147387e-14 -8.322948097969334e-15
lhumerus -42.669532842455595 -15.431591522967254 96.8866106400697
lradius 120.64194842849457
lwrist 45.42777243073603
lhand -33.82132099270018 2.4216122658603982
lfingers nan
lthumb -8.52077491242276 32.08876234662368
rclavicle 2.6727161168691925e-14 -6.558611314543465e-15
rhumerus -60.99631516215088 2.1493491869934367 -89.20881584179013
rradius 124.172521837461
rwrist -5.494043840363128
rhand -19.46725742112818 1.0
rfingers nan
rthumb 6.956409864210781 11.539740494147363
95
root -0.3532006907258312 18.345394428000162 26.753690068541903 3.538888840390119 -4.2094035807370895 -1.3286292872648544
lfemur 6.600776644596859 -2.44780043352445 -25.610893739162055
ltibia 39.02728003201745
lfoot 40.72583061133781 -24.1453694996534
ltoes -11.520833675323432
rfemur -37.50046300637895 -0.8068172254632433 26.210885998650223
rtibia -21.370250552975712
rfoot 5.707566422605528 0.47764406509604385
rtoes -35.339039858569976
lowerback 1.0 -1.2247881717056281 -0.6833576954426082
upperback -0.6306439785774107 -0.6780546087534012 1.6623117703527228
thorax -7.435707289345192 -0.4075512659475515 3.005561683850402
lowerneck -21.21501911714112 -1.9529042055171755 -2.497238251846525
upperneck 8.897339588473665 -2.8007762990754603 1.5072077812360694
head 6.422443709013645 -1.1223545955824645 0.6128348257085342
lclavicle 4.9042677081508323e-14 -2.915190169311671e-14
lhumerus -43.452435400386584 -15.368671180957847 97.08399720859269
lradius 119.21276978549545
lwrist 45.925518606778354
lhand -34.325994975403226 2.969384335150467
lfingers nan
lthumb -9.02058978432185 32.55484626263695
rclavicle 5.479713535465018e-14 -2.7156863781638383e-14
rhumerus -60.35620242654918 1.9879516105005042 -89.38188460155416
rradius 123.75116278130582
rwrist -4.78093173063959
rhand -19.659503287292782 1.0
rfingers nan
rthumb 6.789378021385126 11.117354217841601
96
root -0.3425236835024061 18.27223424488058 27.628587528324783 3.3436804217896343 -4.408189369409223 -1.663086337175293
lfemur 5.0195395929958515 -1.6937898449391937 -24.572097228323308
ltibia 42.6345403175983
lfoot 41.6640333248558 -23.22246829996755
ltoes -9.072960146543473
rfemur -37.4506246512249 -0.8685904567526785 27.384150774148875
rtibia -18.372623973865366
rfoot 6.345771783791328 2.5220580127390173
rtoes -33.73921259957349
lowerback 1.0 -1.1463572202714039 -0.2827731719969775
upperback -0.4117003137235412 -0.49336554249993525 1.766041354464628
thorax -7.439236656764508 -0.3227683741932191 2.843655965025648
lowerneck -21.087210514273323 -1.9840403530347879 -2.454927302121561
upperneck 8.841461406289266 -2.9414053197670866 1.4248968610518589
head 6.361089887504544 -1.168982361691322 0.5655236336820786
lclavicle 2.7946974018099595e-14 -1.6013614886127444e-14
lhumerus -43.94510082952853 -15.34603541324782 97.22698376927988
lradius 117.69930224752909
lwrist 46.062890690722725
lhand -35.09367012651011 2.5282085493191495
lfingers nan
lthumb -9.746729757530934 32.078247931411134
rclavicle 3.313161597536689e-14 -1.4063107586263123e-14
rhumerus -59.70980314515025 1.8932390973757798 -89.52036614027908
rradius 123.52213377707484
rwrist -3.6076289088906837
rhand -19.841463008162712 1.0
rfingers nan
rthumb 6.630598503576789 11.0724318479243
97
root -0.3627545251690588 18.18880234752942 28.227163602880875 3.129951913773998 -4.698439645933195 -2.1807977520450184
lfemur 3.4416451758036004 -0.5960196622548557 -23.017143949066206
ltibia 46.12837514250816
lfoot 41.27613033422335 -23.78887227777461
ltoes -9.245778294884852
rfemur -37.37912450271418 -0.37706815982792996 28.705684375008353
rtibia -14.50515823817667
rfoot 5.570371571323512 5.149280514884558
rtoes -18.464116607730357
lowerback 1.0 -1.0579455989421898 0.0402581611435926
upperback -0.24785818860156605 -0.2696533717993126 2.0381414483302756
thorax -7.3619889748780265 -0.21230608263884926 2.783800955343022
lowerneck -20.25977688355172 -1.92683770260391 -2.382297861626692
upperneck 8.864604742404115 -2.9738173680110416 1.2969632036448742
head 6.22285609428455 -1.1767188625482905 0.5094073385866775
lclavicle -1.8342672453902625e-14 4.15641458567413e-15
lhumerus -44.729142909611255 -15.18509250451094 97.44663743107533
lradius 116.09791716170784
lwrist 47.010931629307166
lhand -36.213857120699636 0.4849451053964264
lfingers nan
lthumb -10.891607926309682 29.94885612245684
rclavicle -1.2907626617414521e-14 6.549164757365645e-15
rhumerus -59.12771335443318 1.9450466957912411 -89.72652325693946
rradius 123.0281358319772
rwrist -2.3004038243740297
rhand -20.071094755575285 1.0
rfingers nan
rthumb 6.423136178237119 11.116439311469168
98
root -0.38024742153371854 18.11489794663781 28.53084143650155 2.9509472997080155 -5.1463410966534555 -2.495539664281446
lfemur 1.9678556579721516 0.589806875855658 -21.640072387233005
ltibia 49.52848010699966
lfoot 41.02053751586967 -23.11547015053511
ltoes -5.509400777659918
rfemur -37.10884494445056 -0.08549446098919766 29.88644596410954
rtibia -10.23158479320896
rfoot 3.238149204401704 8.219442352094699
rtoes -3.8610892479848817
lowerback 1.0 -0.961598240506623 0.1778577537388133
upperback -0.18173267989669895 -0.043479230904059474 2.221139950609172
thorax -7.298652340011296 -0.09647282302861998 2.700016755067449
lowerneck -18.668229448002716 -1.8374389806067257 -2.3489774940666326
upperneck 8.80331346133693 -2.979694111580107 1.2437692574702075
head 5.965818540277267 -1.1771599896231346 0.4860216947989322
lclavicle -5.712318146861675e-15 9.34754539402695e-15
lhumerus -45.70906624359132 -14.757652065699931 97.60291907689381
lradius 114.58282548386511
lwrist 47.33418897757327
lhand -35.97869778595853 0.5779619886742874
lfingers nan
lthumb -10.6142833800623 30.134401402024658
rclavicle -4.936471651388823e-16 1.1546869857205939e-14
rhumerus -58.46285138602364 2.1200301528228014 -90.20613782558557
rradius 122.31720922366723
rwrist -1.1183432640534434
rhand -20.875439216270163 1.0
rfingers nan
rthumb 5.663783877152598 11.24535717356291
99
root -0.34340691477366775 18.053648040846625 28.563874878476746 2.6986661654227326 -4.638299181468992 -1.363106311041524
lfemur 0.679707481365952 1.0974034620365922 -22.17563861910365
ltibia 52.68964042615012
lfoot 40.46561856314884 -21.662736807446482
ltoes -4.607375408442571
rfemur -36.555455003516855 -0.8798904703698409 28.965639972909806
rtibia -5.842575551072308
rfoot 1.480492656232026 7.759659066790641
rtoes 9.589075440705928
lowerback 1.0 -1.0270758692611224 -0.2969571609212729
upperback -0.19510067286015287 -0.15176738275380686 1.6489995277015805
thorax -7.729389139690246 -0.12608807545173156 2.483663855531594
lowerneck -18.263479523971647 -1.8178355429588238 -2.198318567031334
upperneck 9.174024152573333 -3.0893135348140386 1.1819486556819918
head 6.011619041250328 -1.2234570953166375 0.4237868204909889
lclavicle 1.7678675978398475e-14 -1.4186710252914285e-14
lhumerus -46.44531330109416 -14.623862911060103 97.59966332536328
lradius 113.185332030035
lwrist 47.05267198018893
lhand -34.28395368392934 2.7764555140138807
lfingers nan
lthumb -8.945449229839989 32.43749126580173
rclavicle 2.3255852024261662e-14 -1.1843226251734616e-14
rhumerus -57.628701013249966 2.2834332086003553 -91.006468087429
rradius 121.77034941266494
rwrist 0.8598591026528659
rhand -22.938110964143767 1.0
rfingers nan
rthumb 3.700503085138245 12.11726571635115
100
root -0.3754446846292157 17.99339357182614 29.071651504059393 2.7906728513421633 -4.922766881154007 -1.422109228495712
lfemur -1.1605101112437648 2.0002495295107785 -21.10149756333891
ltibia 55.970054148540385
lfoot 38.77386950483306 -20.827612270368988
ltoes -5.830565439571613
rfemur -36.1696655195249 0.3456394089712498 29.342932016782584
rtibia -1.7165424228044586
rfoot -0.861580052993832 5.7042171422682815
rtoes 11.754109798634682
lowerback 1.0 -0.9552695823742647 -0.48487369392564017
upperback -0.314173641887455 -0.0003003742120090136 1.6731913926810178
thorax -8.053321322434895 -0.04497230890275067 2.4966223657832085
lowerneck -17.688625789552788 -1.7912951474558811 -2.0991930685749094
upperneck 9.230480341731846 -3.104229960208119 1.0207243983101324
head 5.928088828973861 -1.2525139917024135 0.3499707531490018
lclavicle 2.467499624459623e-14 1.9917813071857287e-14
lhumerus -47.16097145067309 -14.479885271744937 97.69859273261851
lradius 111.91840866964844
lwrist 46.80238865725114
lhand -33.179632358464985 4.043646250591725
lfingers nan
lthumb -7.916303423343781 33.71554061716174
rclavicle 3.0393372811140094e-14 2.232137233083798e-14
rhumerus -56.84875563246736 2.5752251367016417 -91.6178909294078
rradius 121.26621354040618
rwrist 1.4693931413406442
rhand -24.52931248556229 1.0
rfingers nan
rthumb 2.201145289001082 12.895663225732637
